<svg width="28" height="32" viewBox="0 0 28 32" fill="none" xmlns="http://www.w3.org/2000/svg">
<path fill-rule="evenodd" clip-rule="evenodd" d="M13.9229 8.56999e-06C13.9756 0.0194559 17.0639 1.81399 20.7991 3.99464C24.5486 6.18361 27.6097 7.99769 27.6075 8.01738C27.5972 8.03874 26.7554 8.5097 25.7277 9.0621C24.7011 9.61636 23.6832 10.1611 23.0809 10.4864L21.3242 9.44684C20.3571 8.87435 19.0841 8.12301 18.4952 7.7747C17.9066 7.43113 16.9202 6.85782 16.3042 6.50506C15.6884 6.15244 14.9907 5.74462 14.7533 5.59796C14.5162 5.45608 14.2423 5.2962 14.1507 5.25022C14.0553 5.20003 13.9415 5.16321 13.9 5.16291C13.8544 5.16291 13.6852 5.24553 13.5209 5.35084C13.3567 5.45621 11.4992 6.53273 9.39105 7.74215C7.28451 8.94606 5.39662 10.045 5.19332 10.1793C4.99263 10.3121 4.79129 10.4731 4.7501 10.5419C4.70471 10.6058 4.66842 10.6923 4.66824 10.7291C4.66824 10.7654 4.65456 10.7973 4.63653 10.7979C4.62157 10.7979 4.18306 10.5489 3.53916 10.1793C4.18046 10.5511 4.61773 10.805 4.63136 10.8119C4.64956 10.8165 4.66738 13.247 4.6675 21.5972C4.67179 21.5772 4.67983 21.5639 4.68668 21.5639C4.70334 21.5658 4.90285 21.6797 5.13359 21.8251C5.34608 21.9548 5.53455 22.0899 5.57976 22.1366C5.60258 22.1228 5.63968 22.1415 5.65793 22.1736C5.66023 22.177 5.66206 22.1803 5.66383 22.1832C5.66489 22.1827 5.66652 22.183 5.66752 22.1824C5.69481 22.1688 5.71324 22.178 5.71324 22.2054C5.71324 22.2131 5.71031 22.2196 5.70735 22.2254C5.73838 22.2186 5.76339 22.231 5.76339 22.2513C5.76341 22.2787 5.78631 22.2879 5.80912 22.2742C5.83183 22.2607 5.86322 22.2787 5.87697 22.3104C5.89066 22.3379 5.92762 22.3704 5.95957 22.3704C5.98813 22.3757 6.36637 22.5813 6.78997 22.8328C7.21888 23.0848 8.14039 23.6166 8.84311 24.0151C9.54578 24.4137 10.8921 25.1829 11.8321 25.7235C12.7712 26.2636 13.6058 26.7354 13.6802 26.7682C13.7373 26.7884 13.7987 26.8366 13.8403 26.8822C13.8401 26.8809 13.8403 26.8797 13.8403 26.8785C13.8403 26.8556 13.8859 26.8327 13.9406 26.8326C13.9999 26.8325 14.1278 26.7868 14.2326 26.732C14.3377 26.6723 14.6663 26.4799 14.9627 26.3014C15.2594 26.1226 16.2132 25.5637 17.08 25.0598C17.947 24.5559 19.4347 23.694 20.3883 23.1443C21.3421 22.5945 22.7708 21.7655 23.5602 21.2983C24.3496 20.8356 25.3582 20.2443 25.7963 19.9924C26.2343 19.7404 26.8412 19.4017 27.1377 19.2414L27.6849 18.9529L27.7218 20.5014C27.7401 21.3489 27.7537 22.4849 27.7491 23.0163C27.7354 23.9174 27.7307 23.9964 27.6444 24.0788C27.5942 24.1292 26.8637 24.5647 26.0241 25.0502C25.1845 25.5312 23.674 26.4017 22.6701 26.9835C21.6662 27.5607 19.9417 28.5691 18.8374 29.215C17.7332 29.8655 16.3136 30.685 15.6884 31.047C15.0588 31.4042 14.4107 31.7708 14.237 31.8535C14.0137 31.9678 13.9227 31.9952 13.9044 31.9541C13.8984 31.9426 13.8955 31.8097 13.8941 31.5878C13.8853 31.8663 13.8763 32.0029 13.8631 32C13.8357 31.9908 13.5344 31.8353 13.1876 31.6566C12.8459 31.4737 12.5723 31.2997 12.5851 31.2763C12.5988 31.2534 12.5759 31.2397 12.5393 31.2534C12.5029 31.267 12.4715 31.2533 12.4715 31.2305C12.4715 31.2076 12.4573 31.1938 12.4391 31.2075C12.4162 31.2165 12.3616 31.1938 12.3115 31.1572C12.2613 31.116 12.2521 31.1025 12.2886 31.1254C12.3342 31.1528 12.3477 31.1435 12.3203 31.1069C12.3021 31.0749 12.2565 31.0562 12.22 31.0699C12.1835 31.0836 12.1514 31.0699 12.1514 31.047C12.1513 31.0242 12.1379 31.006 12.1197 31.0152C12.0969 31.0197 12.0787 31.0011 12.0696 30.9782C12.0601 30.9551 12.0056 30.9049 11.942 30.8775C11.9171 30.8641 11.8895 30.8537 11.8646 30.8465C11.9704 30.9145 12.032 30.9574 12.029 30.9649C12.0199 30.9832 11.965 30.9783 11.9103 30.9464C11.8556 30.9189 11.7915 30.8732 11.7731 30.8457L11.7716 30.8443C11.75 30.8458 11.7236 30.8308 11.7089 30.8087C11.7019 30.7972 11.698 30.7882 11.6964 30.7821L11.6957 30.7814C11.6684 30.7768 11.6272 30.7725 11.5998 30.7725C11.577 30.7725 11.5221 30.7354 11.4811 30.6896C11.4705 30.68 11.4593 30.6706 11.4486 30.6615C11.4278 30.6611 11.4034 30.6467 11.3896 30.626C11.3855 30.6192 11.3823 30.6131 11.38 30.6082C11.3744 30.6043 11.3703 30.6004 11.3668 30.5986C11.344 30.5941 11.3077 30.589 11.2805 30.589C11.2577 30.589 11.1935 30.5434 11.1433 30.4839C11.1411 30.4815 11.1381 30.4796 11.1359 30.4773C11.1137 30.4808 11.0857 30.4657 11.0703 30.4425C11.0612 30.4277 11.0579 30.4173 11.0578 30.4114C11.0537 30.4105 11.0519 30.4108 11.0519 30.4151C11.0514 30.4331 10.9562 30.3963 10.838 30.3278C10.7229 30.2612 10.612 30.1857 10.5887 30.1562C10.5665 30.16 10.5378 30.1454 10.5223 30.1221C10.5193 30.1172 10.5178 30.112 10.5157 30.1081C10.5016 30.1027 10.4873 30.0969 10.4729 30.094C10.4274 30.0894 10.3498 30.0437 10.2996 29.9934C10.2917 29.9854 10.2828 29.9787 10.2746 29.9719C10.2517 29.98 10.2198 29.9639 10.203 29.9386C10.2013 29.9358 10.2 29.933 10.1986 29.9305C10.1852 29.9277 10.1742 29.9284 10.1669 29.9342C10.1442 29.9524 10.1399 29.9431 10.1536 29.9157C10.157 29.9095 10.1693 29.9099 10.1912 29.9157C10.1817 29.894 10.1957 29.8992 10.2355 29.9246C10.2855 29.9566 10.2943 29.9569 10.2716 29.9113C10.2488 29.8838 10.2033 29.8651 10.1669 29.8787C10.1304 29.8925 10.0983 29.8787 10.0983 29.8558C10.0977 29.8348 10.0407 29.7824 9.97292 29.7352C10.0322 29.7846 10.0758 29.8316 10.085 29.8558C10.0987 29.9152 10.0981 29.9152 10.0526 29.8558C10.0296 29.8193 9.97044 29.7828 9.92499 29.7736C9.8794 29.769 9.80185 29.7233 9.75168 29.673C9.74435 29.6657 9.73622 29.6594 9.72882 29.653C9.70079 29.6554 9.67077 29.6401 9.65581 29.6175C9.65391 29.6143 9.65219 29.6114 9.65064 29.6086C9.64108 29.6072 9.63355 29.6082 9.62852 29.6131C9.6057 29.6314 9.59165 29.6222 9.59165 29.5902C9.59168 29.5796 9.59408 29.5701 9.59828 29.562C9.57121 29.565 9.55035 29.5538 9.55035 29.5354C9.55034 29.5125 9.53688 29.4987 9.51864 29.5125C9.49578 29.5215 9.44117 29.4987 9.39105 29.4622C9.34086 29.4209 9.33168 29.4074 9.36819 29.4303C9.41371 29.4577 9.42725 29.4485 9.3999 29.4118C9.38165 29.3798 9.33611 29.3611 9.2996 29.3748C9.26311 29.3886 9.23102 29.3748 9.23102 29.3519C9.23081 29.3291 9.20372 29.311 9.17645 29.3201C9.14454 29.3246 9.1216 29.3017 9.13072 29.2742C9.13526 29.2376 9.11274 29.2243 9.07172 29.238C9.03537 29.2517 9.00341 29.2378 9.00314 29.215C9.00314 29.1921 8.98023 29.1784 8.95741 29.1921C8.93455 29.2056 8.88874 29.1735 8.86597 29.1233C8.83863 29.073 8.79341 29.0409 8.7524 29.0545C8.71604 29.0682 8.68407 29.05 8.68381 29.0227C8.68381 28.9906 8.67464 28.9768 8.66095 28.9997C8.64517 29.0167 8.18937 28.7647 7.64765 28.4448C7.10014 28.1196 6.35204 27.6891 5.98242 27.483C5.60824 27.2768 5.30689 27.0979 5.30689 27.0842C5.30727 27.0708 5.3343 27.0755 5.36147 27.0982C5.40102 27.1196 5.40867 27.1119 5.38433 27.0753C5.36608 27.0433 5.32051 27.0246 5.28403 27.0383C5.24772 27.052 5.21579 27.0388 5.21545 27.0161C5.21545 26.9932 5.20199 26.9794 5.18374 26.9932C5.16089 27.0023 5.10631 26.9787 5.05615 26.9421C5.00596 26.9009 4.99679 26.8874 5.03329 26.9103C5.08335 26.9331 5.09222 26.9285 5.06943 26.8874C5.04658 26.8599 5.00115 26.8418 4.9647 26.8555C4.92827 26.8693 4.89624 26.8554 4.89612 26.8326C4.89612 26.8097 4.88263 26.796 4.86441 26.8097C4.84164 26.8188 4.78693 26.7959 4.73682 26.7594C4.68663 26.7181 4.67746 26.7039 4.71396 26.7268C4.76403 26.7496 4.7729 26.7451 4.7501 26.7039C4.72726 26.6766 4.68175 26.6585 4.64538 26.6721C4.60887 26.6858 4.57679 26.672 4.57679 26.6491C4.57673 26.6263 4.55827 26.6082 4.53549 26.6173C4.51275 26.6217 4.48989 26.6031 4.48534 26.5803C4.48502 26.5573 4.43031 26.5071 4.36661 26.4797C4.34139 26.4661 4.31368 26.4551 4.28844 26.4479C4.39487 26.5163 4.4568 26.5596 4.45363 26.567C4.44416 26.585 4.38937 26.5803 4.3349 26.5485C4.28042 26.5211 4.21702 26.4754 4.19846 26.4479L4.19699 26.4464C4.17529 26.4481 4.14901 26.433 4.1343 26.4109C4.12721 26.3993 4.12343 26.3904 4.12177 26.3842L4.12029 26.3835C4.0931 26.379 4.05242 26.3747 4.02516 26.3746C4.00237 26.3746 3.94748 26.3375 3.90642 26.2918C3.8954 26.2818 3.88265 26.273 3.87102 26.2636C3.85091 26.2621 3.82824 26.2478 3.81498 26.2281C3.81314 26.2251 3.81129 26.2219 3.80981 26.2192C3.79725 26.212 3.78653 26.2066 3.7781 26.2052C3.74984 26.2046 3.57671 26.1127 3.38576 26.0032C3.2045 25.8967 3.04063 25.7898 3.01408 25.7583C2.99177 25.7624 2.96326 25.747 2.9477 25.7235C2.94528 25.7196 2.94358 25.7157 2.9418 25.7124C2.92713 25.7062 2.91251 25.6992 2.89755 25.6961C2.85193 25.6915 2.77439 25.6458 2.72425 25.5955C2.71615 25.5874 2.7068 25.5809 2.69843 25.5741C2.67576 25.5811 2.64492 25.5655 2.62837 25.5408C2.62672 25.538 2.62533 25.5351 2.62395 25.5326C2.61057 25.5298 2.59963 25.5305 2.59224 25.5363C2.56947 25.5546 2.56464 25.5452 2.57822 25.5178C2.58151 25.5115 2.59378 25.5121 2.61584 25.5178C2.60635 25.4962 2.62043 25.5014 2.66008 25.5267C2.71015 25.5587 2.71955 25.5588 2.69696 25.5134C2.67414 25.4859 2.62801 25.4671 2.5915 25.4808C2.55506 25.4945 2.52365 25.4808 2.52365 25.4579C2.52328 25.4349 2.45482 25.3712 2.37763 25.321C2.35394 25.3065 2.32862 25.2934 2.30462 25.2826C2.41053 25.348 2.49675 25.4241 2.50964 25.4579C2.52331 25.5174 2.52348 25.5173 2.47793 25.4579C2.45514 25.4214 2.39587 25.3851 2.35034 25.3758C2.30484 25.3712 2.22724 25.3254 2.17704 25.2752C2.16962 25.2677 2.16112 25.2616 2.15344 25.2552C2.12552 25.2574 2.09532 25.2421 2.08043 25.2197C2.07893 25.2171 2.07802 25.2145 2.07674 25.2123C2.06296 25.2092 2.0518 25.2093 2.04429 25.2152C2.02149 25.2335 2.01719 25.2242 2.03544 25.1967C2.04796 25.1691 2.08294 25.1695 2.1527 25.2004C2.15154 25.198 2.15041 25.1951 2.14901 25.1923C2.12618 25.1649 2.08074 25.1468 2.04429 25.1605C2.00785 25.1742 1.97582 25.1604 1.9757 25.1375C1.9757 25.1146 1.95708 25.0958 1.93883 25.105C1.91238 25.1073 1.46723 24.854 0 23.9693L0.0317117 20.0753C0.0454008 17.9359 0.0640206 14.6741 0.0685849 12.837C0.0731482 10.9999 0.0866069 9.19909 0.100297 8.83717C0.113986 8.37455 0.132379 8.19573 0.168882 8.21863C0.181324 8.22689 0.374286 8.33865 0.685117 8.51976C0.355157 8.32555 0.151192 8.20469 0.141595 8.19569C0.140103 8.16751 3.21355 6.31618 6.98614 4.0775C10.769 1.82814 13.8909 -0.00457263 13.9229 8.56999e-06ZM11.5969 30.6807C11.6664 30.7228 11.7303 30.7608 11.7856 30.7954C11.7856 30.7817 11.7275 30.7403 11.6499 30.7037C11.6328 30.6951 11.6145 30.6875 11.5969 30.6807ZM11.4501 30.592C11.4272 30.5729 11.3834 30.5451 11.3306 30.5202C11.3262 30.5179 11.3212 30.5164 11.3166 30.5143C11.3624 30.541 11.4072 30.5665 11.4501 30.592ZM11.0902 30.3818C11.0439 30.3512 10.9741 30.3099 10.897 30.2686C10.865 30.2515 10.8331 30.235 10.8026 30.2205C10.8898 30.269 10.986 30.3223 11.0902 30.3818ZM10.3188 29.9682C10.3897 30.0011 10.4832 30.0478 10.5983 30.1096L10.6005 30.1081C10.6005 30.0943 10.5409 30.053 10.4633 30.0163C10.4133 29.9912 10.3567 29.9731 10.3188 29.9682ZM13.8816 26.9473C13.9106 27.0323 13.925 27.3053 13.9265 28.0475C13.9327 27.2645 13.923 26.9773 13.8948 26.9606C13.8898 26.957 13.8861 26.9515 13.8816 26.9473ZM4.02442 26.2836C4.09323 26.3252 4.15617 26.3632 4.211 26.3976C4.211 26.3838 4.15215 26.3425 4.07457 26.3058C4.05825 26.2976 4.04124 26.2902 4.02442 26.2836ZM3.54137 25.9988C3.64132 26.0561 3.73691 26.1129 3.82678 26.166C3.75396 26.1193 3.6274 26.0437 3.48164 25.9618C3.46175 25.951 3.44133 25.9417 3.4219 25.9314C3.46023 25.9533 3.50047 25.9752 3.54137 25.9988ZM2.74489 25.5704C2.81564 25.6031 2.90881 25.6494 3.02366 25.7109L3.02514 25.7102C3.02514 25.6965 2.96613 25.6551 2.8887 25.6185C2.83912 25.5936 2.78281 25.5754 2.74489 25.5704ZM5.59451 22.1965C5.60835 22.2171 5.63763 22.2316 5.66678 22.232C5.65308 22.2256 5.62785 22.212 5.59304 22.1935C5.59354 22.1944 5.59399 22.1956 5.59451 22.1965ZM4.66824 21.6786L5.01559 21.8724C4.82932 21.7609 4.6891 21.662 4.6675 21.6261C4.6675 21.6435 4.66824 21.6611 4.66824 21.6786Z" fill="#E4E4E7"/>
<path fill-rule="evenodd" clip-rule="evenodd" d="M27.7034 10.5234C27.7488 10.5249 27.7579 11.0523 27.7351 15.5812L27.4844 15.7225C27.3475 15.8004 26.9463 16.0302 26.595 16.2271C26.2436 16.4241 25.2166 17.0238 24.3132 17.5552C23.4097 18.0912 20.8952 19.5574 18.7231 20.8218C16.5517 22.0812 14.6534 23.1852 14.5018 23.2775C14.3513 23.369 14.1549 23.4654 14.0681 23.4883C13.9815 23.5111 13.8584 23.5199 13.7945 23.5017C13.7287 23.4868 12.7666 22.9423 11.6499 22.2971C10.5321 21.6513 9.33184 20.9597 8.98028 20.7626C8.6292 20.5704 8.22809 20.3365 8.09088 20.2447C7.95409 20.1577 7.86251 20.0749 7.88512 20.0656C7.90972 20.0612 8.67946 20.4862 10.9943 21.8044L13.8631 23.4425L10.897 21.7474C9.26339 20.8128 7.90801 20.0524 7.88512 20.0523C7.85774 20.0523 7.7211 19.9785 7.31505 19.7083L7.30546 17.2763C7.30091 15.9418 7.31026 14.8395 7.3239 14.8206C7.33759 14.8069 8.5374 15.4757 9.98841 16.3048C11.4441 17.134 12.7405 17.8763 12.8683 17.9496C12.9444 17.9917 13.0104 18.0204 13.0497 18.0339C13.0125 18.0205 12.9621 17.9966 12.8955 17.9585C12.7712 17.8936 11.5075 17.1703 10.0754 16.3507C8.64917 15.5364 7.45466 14.8498 7.42862 14.825C7.40141 14.7977 7.41083 14.7836 7.4655 14.7836C7.50683 14.7838 7.65274 14.8387 7.78482 14.9027C7.91281 14.9716 8.37391 15.224 8.79812 15.4621C9.22736 15.7005 10.3452 16.3507 11.2849 16.9049C12.2249 17.4592 13.0099 17.9404 13.0327 17.9725C13.0433 17.9937 13.06 18.0064 13.0784 18.0095C13.0764 17.9975 13.0788 17.9903 13.0873 17.9903C13.0927 17.9903 13.1009 17.996 13.1116 18.0028L13.1433 17.9895C13.1606 17.9846 13.1599 17.9956 13.1419 18.0228L13.1411 18.0236C13.1503 18.0307 13.1601 18.038 13.1692 18.0458C13.201 18.0778 13.2695 18.1277 13.3152 18.1553C13.3653 18.1827 13.4748 18.2425 13.5615 18.2929C13.629 18.3285 13.7093 18.3854 13.7636 18.4275C13.764 18.4126 13.8018 18.4048 13.886 18.3935C13.9827 18.3792 14.6445 18.0174 15.5062 17.5093C16.3096 17.0374 18.1572 15.9564 19.6125 15.1136C21.0682 14.2707 22.9989 13.1571 23.9024 12.6394C24.8059 12.1218 26.0155 11.4346 26.595 11.1094C27.1736 10.7892 27.6704 10.524 27.7034 10.5234ZM13.8705 19.1711C13.8659 18.6833 13.8543 18.5415 13.8248 18.4904C13.8492 18.5455 13.8641 18.6822 13.8705 19.1711ZM13.8734 20.1811C13.8745 19.7703 13.8731 19.4595 13.8712 19.2236C13.8739 19.4587 13.8737 19.7692 13.8734 20.1811Z" fill="#14B8A6"/>
</svg>
